<?xml version="1.0" standalone="no"?>
<!DOCTYPE svg PUBLIC "-//W3C//DTD SVG 20010904//EN"
 "http://www.w3.org/TR/2001/REC-SVG-20010904/DTD/svg10.dtd">
<svg version="1.0" xmlns="http://www.w3.org/2000/svg"
 width="215.000000pt" height="205.000000pt" viewBox="0 0 215.000000 205.000000"
 preserveAspectRatio="xMidYMid meet">

<g transform="translate(0.000000,205.000000) scale(0.100000,-0.100000)"
fill="#000000" stroke="none">
<path d="M0 1025 l0 -1025 1075 0 1075 0 0 1025 0 1025 -1075 0 -1075 0 0
-1025z m2030 688 l0 -217 -70 69 -70 69 -32 -30 c-18 -17 -159 -145 -313 -284
-154 -139 -294 -267 -312 -283 l-31 -29 -190 172 c-105 95 -193 172 -196 172
-4 -1 -149 -133 -323 -294 -175 -161 -327 -301 -340 -311 l-23 -18 0 134 0
134 308 285 c170 157 324 299 343 316 l36 31 192 -175 192 -174 64 57 c35 32
158 144 273 248 l210 190 -76 78 -77 77 218 0 217 0 0 -217z m-68 -340 l68
-67 0 -593 0 -593 -100 0 -100 0 0 639 0 639 28 21 c15 11 29 21 32 21 2 0 35
-30 72 -67z m-212 -663 l0 -590 -100 0 -100 0 0 508 1 507 92 82 c51 45 95 82
100 82 4 1 7 -264 7 -589z m-892 400 l32 -39 0 -475 0 -476 -100 0 -100 0 0
464 0 464 56 51 c30 28 61 51 67 51 7 0 27 -18 45 -40z m612 -525 l0 -465
-110 0 -110 0 0 378 0 379 108 86 c59 47 108 86 110 87 1 0 2 -209 2 -465z
m-390 342 l95 -83 3 -362 2 -362 -105 0 -105 0 0 445 c0 245 3 445 8 445 4 -1
50 -38 102 -83z m-470 -382 l0 -425 -95 0 -95 0 0 339 0 339 92 86 c51 47 93
86 95 86 2 0 3 -191 3 -425z m-260 -120 l0 -305 -110 0 -110 0 0 202 0 202
108 103 c59 56 108 102 110 102 1 1 2 -136 2 -304z"/>
</g>
</svg>
